<svg version="1.1" xmlns="http://www.w3.org/2000/svg" viewBox="-33.1 81.5 970.6 817.6">
<rect x="-33.1" y="81.5" width="970.6" height="817.6" fill="#202124" />
<polyline points="590.0 155.0,592.0 154.0,594.0 152.0,596.0 151.0,600.0 148.0,603.0 147.0,608.0 145.0,611.0 143.0,616.0 143.0,621.0 141.0,624.0 140.0,627.0 140.0,690.0 142.0,692.0 143.0,695.0 144.0,698.0 147.0,701.0 149.0,705.0 153.0,708.0 155.0,710.0 157.0,711.0 159.0,714.0 164.0,714.0 168.0,715.0 172.0,716.0 174.0,716.0 177.0,714.0 199.0,713.0 201.0,711.0 204.0,709.0 206.0,706.0 210.0,703.0 212.0,702.0 214.0,699.0 216.0,695.0 219.0,692.0 221.0,689.0 222.0,686.0 224.0,684.0 225.0,681.0 226.0,673.0 228.0,663.0 230.0,659.0 230.0,591.0 228.0,588.0 228.0,586.0 227.0,581.0 223.0,578.0 221.0,576.0 220.0,574.0 218.0,571.0 214.0,571.0 211.0,570.0 202.0,570.0 197.0,571.0 182.0,572.0 179.0,574.0 178.0,575.0 175.0,577.0 174.0,578.0 172.0,580.0 169.0,581.0 166.0,582.0 164.0,583.0 161.0,585.0 159.0,588.0 155.0,590.0 153.0,591.0 152.0" style="fill:none;stroke:#ffffff;stroke-width:2"/>
<polyline points="593.0 171.0,593.0 174.0,594.0 188.0,594.0 192.0,595.0 196.0,595.0 200.0,596.0 203.0,598.0 206.0,600.0 208.0,603.0 209.0,605.0 205.0,607.0 199.0,607.0 196.0,609.0 195.0,609.0 192.0,611.0 191.0,612.0 193.0,614.0 198.0,614.0 203.0,617.0 209.0,619.0 207.0,620.0 205.0,620.0 202.0,622.0 198.0,623.0 194.0,624.0 191.0,626.0 187.0,627.0 182.0,627.0 179.0,628.0 177.0,629.0 174.0,631.0 171.0" style="fill:none;stroke:#ffffff;stroke-width:2"/>
<polyline points="645.0 172.0,645.0 175.0,643.0 180.0,643.0 184.0,642.0 203.0,640.0 200.0,640.0 197.0,641.0 195.0,643.0 192.0,645.0 190.0,649.0 190.0,652.0 191.0,654.0 193.0,656.0 196.0,657.0 199.0,658.0 203.0" style="fill:none;stroke:#ffffff;stroke-width:2"/>
<polyline points="683.0 187.0,680.0 188.0,679.0 191.0,677.0 194.0,676.0 196.0,674.0 199.0,673.0 201.0,671.0 203.0,670.0 206.0,670.0 210.0,672.0 208.0,676.0 205.0,677.0 203.0,679.0 202.0,680.0 200.0,683.0 196.0,684.0 193.0,686.0 191.0,686.0 188.0,686.0 207.0" style="fill:none;stroke:#ffffff;stroke-width:2"/>
<polyline points="695.0 162.0,697.0 164.0,698.0 167.0,698.0 171.0,699.0 175.0,699.0 179.0,700.0 182.0,701.0 184.0,701.0 189.0,702.0 193.0,702.0 197.0,703.0 199.0,703.0 203.0,704.0 206.0,708.0 206.0,709.0 204.0,710.0 201.0" style="fill:none;stroke:#ffffff;stroke-width:2"/>
<polyline points="692.0 178.0,696.0 178.0,699.0 177.0,704.0 177.0,706.0 177.0" style="fill:none;stroke:#ffffff;stroke-width:2"/>
<polyline points="568.0 183.0,565.0 180.0,562.0 176.0,560.0 175.0,558.0 173.0,555.0 171.0,553.0 169.0,551.0 168.0,549.0 165.0,547.0 164.0,544.0 161.0,540.0 159.0,534.0 155.0,529.0 152.0,527.0 151.0,523.0 151.0,521.0 150.0,517.0 150.0,516.0 148.0,513.0 146.0,512.0 145.0" style="fill:none;stroke:#ffffff;stroke-width:2"/>
<polyline points="521.0 145.0,522.0 142.0,520.0 138.0,518.0 133.0,516.0 132.0,514.0 129.0,509.0 127.0,507.0 125.0,505.0 124.0,500.0 120.0,498.0 119.0,495.0 117.0,490.0 115.0,487.0 113.0,482.0 111.0,480.0 110.0,477.0 108.0,472.0 108.0,469.0 107.0,463.0 104.0,460.0 104.0,456.0 103.0,454.0 102.0,451.0 102.0,444.0 101.0,441.0 101.0,394.0 102.0,388.0 105.0,385.0 106.0,380.0 107.0,370.0 110.0,366.0 110.0,361.0 113.0,358.0 115.0,353.0 117.0,350.0 119.0,348.0 121.0,338.0 130.0,337.0 132.0,335.0 135.0,334.0 139.0,332.0 144.0,332.0 150.0,333.0 164.0,337.0 169.0,342.0 174.0,348.0 178.0,353.0 180.0,359.0 182.0,373.0 189.0,380.0 191.0,386.0 193.0,394.0 195.0,400.0 196.0,405.0 197.0,408.0 197.0,417.0 198.0,420.0 198.0,437.0 197.0,444.0 195.0,448.0 194.0,455.0 193.0,459.0 191.0,464.0 188.0,470.0 186.0,474.0 184.0,477.0 183.0,482.0 180.0,487.0 178.0,489.0 177.0,493.0 174.0,495.0 171.0,497.0 169.0,499.0 168.0,502.0 166.0,505.0 162.0,507.0 160.0,511.0 155.0,512.0 151.0,514.0 148.0,514.0 145.0,515.0 140.0,516.0 138.0,516.0 136.0" style="fill:none;stroke:#ffffff;stroke-width:2"/>
<polyline points="616.0 230.0,614.0 233.0,612.0 234.0,609.0 237.0,608.0 239.0,606.0 242.0,604.0 244.0,602.0 247.0,600.0 251.0,598.0 253.0,597.0 255.0,595.0 256.0,594.0 259.0,592.0 261.0,591.0 263.0,589.0 266.0,587.0 268.0,585.0 272.0,583.0 275.0,581.0 277.0,580.0 279.0,578.0 282.0,574.0 287.0,573.0 289.0,571.0 291.0,569.0 295.0,566.0 297.0,565.0 300.0,562.0 302.0,560.0 305.0,558.0 307.0,554.0 312.0,552.0 314.0,550.0 315.0,548.0 317.0,545.0 321.0,543.0 324.0,542.0 326.0,539.0 329.0,536.0 333.0,535.0 335.0,533.0 338.0,532.0 340.0,530.0 342.0,527.0 346.0,525.0 348.0,524.0 350.0" style="fill:none;stroke:#ffffff;stroke-width:2"/>
<polyline points="687.0 225.0,687.0 228.0,688.0 247.0,689.0 252.0,691.0 255.0,691.0 259.0,693.0 262.0,693.0 267.0,695.0 269.0,696.0 271.0,698.0 273.0,699.0 276.0,700.0 278.0,702.0 280.0,703.0 282.0,704.0 285.0,706.0 288.0,707.0 290.0,707.0 293.0,709.0 297.0,711.0 300.0,713.0 305.0,714.0 308.0,715.0 312.0,717.0 313.0,717.0 315.0" style="fill:none;stroke:#ffffff;stroke-width:2"/>
<polyline points="674.0 349.0,673.0 346.0" style="fill:none;stroke:#ffffff;stroke-width:2"/>
<polyline points="707.0 345.0,711.0 345.0" style="fill:none;stroke:#ffffff;stroke-width:2"/>
<polyline points="747.0 344.0,744.0 343.0,741.0 341.0,743.0 341.0" style="fill:none;stroke:#ffffff;stroke-width:2"/>
<polyline points="505.0 346.0,508.0 346.0,557.0 347.0,560.0 349.0,562.0 351.0,564.0 352.0,566.0 354.0,569.0 355.0,571.0 357.0,575.0 360.0,576.0 363.0,578.0 367.0,580.0 373.0,582.0 375.0,582.0 378.0,584.0 381.0,586.0 385.0,588.0 391.0,588.0 396.0,587.0 404.0,586.0 407.0,584.0 409.0,582.0 412.0,580.0 414.0,577.0 416.0,573.0 419.0,570.0 420.0,568.0 422.0,565.0 423.0,560.0 425.0,558.0 426.0,555.0 426.0,552.0 427.0,546.0 427.0,476.0 425.0,474.0 424.0,473.0 422.0,471.0 421.0,469.0 418.0,468.0 416.0,464.0 413.0,462.0 410.0,459.0 406.0,455.0 401.0,454.0 397.0,452.0 394.0,451.0 392.0,450.0 388.0,450.0 384.0,451.0 375.0,453.0 373.0,455.0 372.0,457.0 370.0,460.0 369.0,462.0 368.0,465.0 366.0,469.0 365.0,474.0 362.0,477.0 362.0,483.0 361.0,487.0 359.0,491.0 359.0,496.0 358.0,499.0 358.0,515.0 357.0,519.0 357.0,534.0 355.0,539.0 354.0" style="fill:none;stroke:#ffffff;stroke-width:2"/>
<polyline points="498.0 386.0,498.0 390.0,497.0 393.0,497.0 396.0,496.0 402.0,496.0 404.0" style="fill:none;stroke:#ffffff;stroke-width:2"/>
<polyline points="548.0 382.0,533.0 383.0,531.0 385.0,531.0 389.0,532.0 392.0,535.0 394.0,539.0 397.0,542.0 398.0,544.0 399.0,548.0 403.0,546.0 407.0,544.0 409.0,539.0 413.0,536.0 415.0,534.0 416.0,529.0 417.0,525.0 417.0,518.0 417.0" style="fill:none;stroke:#ffffff;stroke-width:2"/>
<polyline points="497.0 380.0,497.0 384.0,496.0 392.0,496.0 397.0,497.0 410.0" style="fill:none;stroke:#ffffff;stroke-width:2"/>
<polyline points="490.0 413.0,492.0 414.0,495.0 414.0,497.0 415.0,501.0 415.0,505.0 415.0" style="fill:none;stroke:#ffffff;stroke-width:2"/>
<polyline points="491.0 377.0,495.0 377.0,501.0 377.0" style="fill:none;stroke:#ffffff;stroke-width:2"/>
<polyline points="444.0 369.0,440.0 368.0,437.0 366.0,434.0 366.0,431.0 365.0,426.0 364.0,423.0 363.0,418.0 361.0,415.0 360.0,412.0 360.0,410.0 359.0,407.0 358.0,401.0 357.0,398.0 355.0,393.0 354.0,391.0 353.0,390.0 352.0" style="fill:none;stroke:#ffffff;stroke-width:2"/>
<polyline points="394.0 348.0,391.0 343.0,389.0 340.0,386.0 336.0,382.0 333.0,379.0 328.0,375.0 324.0,364.0 314.0,358.0 310.0,353.0 305.0,350.0 303.0,346.0 300.0,342.0 296.0,338.0 295.0,336.0 292.0,332.0 290.0,330.0 288.0,328.0 287.0,323.0 285.0,321.0 284.0,314.0 281.0,309.0 280.0,303.0 279.0,299.0 278.0,290.0 276.0,286.0 276.0,281.0 275.0,275.0 274.0,268.0 274.0,263.0 273.0,259.0 273.0,234.0 275.0,231.0 276.0,226.0 276.0,222.0 277.0,219.0 279.0,217.0 280.0,213.0 280.0,210.0 283.0,207.0 285.0,205.0 286.0,203.0 289.0,199.0 292.0,197.0 295.0,195.0 297.0,190.0 303.0,189.0 305.0,186.0 308.0,185.0 311.0,183.0 314.0,182.0 316.0,182.0 319.0,181.0 322.0,181.0 325.0,179.0 326.0,179.0 329.0,180.0 344.0,182.0 347.0,183.0 350.0,186.0 352.0,188.0 354.0,192.0 356.0,195.0 357.0,200.0 358.0,202.0 360.0,206.0 360.0,209.0 361.0,213.0 362.0,216.0 362.0,219.0 363.0,226.0 363.0,253.0 364.0,258.0 364.0,263.0 365.0,271.0 366.0,275.0 368.0,278.0 368.0,282.0 369.0,287.0 369.0,354.0 367.0,356.0 366.0,359.0 364.0,361.0 362.0,363.0 361.0,365.0 359.0,367.0 355.0,369.0 353.0,371.0 350.0,373.0 349.0" style="fill:none;stroke:#ffffff;stroke-width:2"/>
<polyline points="222.0 299.0,220.0 301.0,218.0 305.0,218.0 309.0,219.0 329.0,221.0 334.0,222.0 336.0,226.0 336.0,232.0 335.0,235.0 333.0,240.0 329.0,242.0 327.0,243.0 324.0,245.0 322.0,246.0 319.0,249.0 314.0,250.0 312.0,251.0 305.0,252.0 307.0,252.0 311.0,250.0 320.0,249.0 324.0,248.0 329.0,248.0 333.0,247.0 337.0,247.0 341.0,246.0 345.0,244.0 348.0,243.0 350.0,243.0 353.0,242.0 354.0" style="fill:none;stroke:#ffffff;stroke-width:2"/>
<polyline points="264.0 307.0,265.0 310.0,265.0 314.0,266.0 341.0,266.0 338.0,267.0 335.0,267.0 331.0,268.0 327.0,269.0 325.0,270.0 322.0,271.0 318.0,272.0 316.0,273.0 313.0,276.0 311.0,278.0 310.0,281.0 309.0,285.0 309.0,291.0 308.0,295.0 308.0" style="fill:none;stroke:#ffffff;stroke-width:2"/>
<polyline points="312.0 299.0,312.0 303.0,312.0 354.0" style="fill:none;stroke:#ffffff;stroke-width:2"/>
<polyline points="337.0 320.0,334.0 319.0,329.0 318.0,327.0 319.0,326.0 322.0,326.0 326.0,327.0 330.0,330.0 330.0,332.0 332.0,334.0 333.0,338.0 334.0,340.0 336.0,342.0 341.0,342.0 345.0,341.0 349.0,338.0 349.0,336.0 350.0,334.0 351.0" style="fill:none;stroke:#ffffff;stroke-width:2"/>
<polyline points="478.0 424.0,477.0 427.0,474.0 429.0,471.0 432.0,467.0 434.0,466.0 436.0,463.0 438.0,461.0 440.0,458.0 442.0,456.0 444.0,452.0 447.0,449.0 448.0,445.0 451.0,442.0 452.0,439.0 455.0,437.0 456.0,434.0 459.0,432.0 460.0,429.0 462.0,424.0 465.0,423.0 467.0,419.0 470.0,417.0 472.0,414.0 474.0,413.0 476.0,411.0 478.0,404.0 484.0,402.0 486.0,400.0 487.0,398.0 489.0,394.0 492.0,392.0 494.0,389.0 496.0,385.0 499.0,377.0 504.0,374.0 506.0,371.0 507.0,369.0 508.0,367.0 510.0,365.0 513.0,362.0 514.0,360.0 517.0,357.0 521.0,356.0 523.0,354.0 526.0,353.0 529.0,352.0 531.0,350.0 534.0,349.0 536.0,347.0 538.0,346.0 540.0,344.0 541.0" style="fill:none;stroke:#ffffff;stroke-width:2"/>
<polyline points="559.0 425.0,561.0 426.0,564.0 429.0,565.0 431.0,570.0 436.0,575.0 443.0,577.0 444.0,581.0 447.0,584.0 448.0,586.0 451.0,589.0 452.0,591.0 454.0,594.0 458.0,596.0 459.0,598.0 461.0,599.0 463.0,601.0 465.0,602.0 467.0,606.0 473.0,608.0 475.0,609.0 478.0,610.0 480.0,614.0 487.0,615.0 489.0,618.0 494.0,620.0 495.0,623.0 499.0,626.0 501.0,627.0 503.0,631.0 506.0,633.0 508.0,634.0 511.0,636.0 513.0,638.0 517.0,640.0 520.0,642.0 522.0,643.0 524.0,644.0 527.0,646.0 528.0,647.0 531.0,649.0 534.0,650.0 537.0,652.0 538.0,653.0 540.0,655.0 542.0,656.0 543.0" style="fill:none;stroke:#ffffff;stroke-width:2"/>
<polyline points="625.0 582.0,626.0 585.0,624.0 587.0,622.0 586.0,621.0 583.0" style="fill:none;stroke:#ffffff;stroke-width:2"/>
<polyline points="654.0 583.0,657.0 584.0,659.0 586.0,662.0 588.0,663.0 589.0" style="fill:none;stroke:#ffffff;stroke-width:2"/>
<polyline points="657.0 586.0,657.0 584.0" style="fill:none;stroke:#ffffff;stroke-width:2"/>
<polyline points="713.0 585.0,716.0 586.0,717.0 589.0,717.0 593.0,715.0 594.0,712.0 594.0,707.0 593.0,709.0 591.0,713.0 591.0" style="fill:none;stroke:#ffffff;stroke-width:2"/>
<polyline points="313.0 544.0,317.0 544.0,320.0 543.0,323.0 543.0,326.0 542.0,331.0 542.0,353.0 543.0,356.0 543.0,360.0 544.0,364.0 544.0,367.0 545.0,369.0 546.0,372.0 547.0,377.0 550.0,379.0 552.0,382.0 554.0,384.0 556.0,385.0 558.0,387.0 560.0,390.0 564.0,393.0 566.0,395.0 568.0,398.0 570.0,399.0 572.0,401.0 573.0,402.0 575.0,404.0 578.0,405.0 582.0,406.0 584.0,407.0 588.0,408.0 593.0,408.0 596.0,407.0 613.0,406.0 615.0,404.0 618.0,403.0 620.0,400.0 625.0,397.0 627.0,395.0 629.0,394.0 631.0,391.0 632.0,389.0 634.0,386.0 636.0,384.0 637.0,382.0 639.0,378.0 640.0,377.0 642.0,372.0 643.0,370.0 644.0,367.0 645.0,363.0 646.0,354.0 649.0,349.0 650.0,346.0 650.0,341.0 651.0,337.0 651.0,331.0 653.0,328.0 653.0,275.0 651.0,271.0 649.0,268.0 649.0,263.0 648.0,260.0 646.0,258.0 645.0,255.0 644.0,251.0 643.0,246.0 640.0,241.0 639.0,234.0 637.0,228.0 635.0,224.0 634.0,221.0 632.0,218.0 631.0,214.0 629.0,212.0 627.0,210.0 624.0,208.0 620.0,207.0 617.0,207.0 612.0,208.0 583.0,209.0 580.0,210.0 578.0,212.0 576.0,216.0 571.0,217.0 568.0,221.0 566.0,230.0 562.0,232.0 560.0,236.0 560.0,241.0 559.0,244.0 557.0,246.0 556.0,250.0 556.0,323.0 554.0,325.0 552.0,327.0 548.0,329.0 545.0,329.0 543.0" style="fill:none;stroke:#ffffff;stroke-width:2"/>
<polyline points="250.0 628.0,250.0 623.0,251.0 621.0,253.0 620.0,256.0 616.0,257.0 614.0,259.0 611.0,260.0 609.0,262.0 606.0,263.0 602.0,264.0 599.0,267.0 596.0,269.0 592.0,270.0 589.0,272.0 585.0,274.0 583.0,275.0 580.0,277.0 576.0,279.0 574.0,280.0 572.0,281.0 569.0,282.0 567.0,284.0 565.0,286.0 562.0,289.0 561.0,291.0 562.0,292.0 566.0,292.0 570.0,293.0 574.0,293.0 577.0,296.0 583.0,296.0 589.0,297.0 595.0,297.0 600.0,298.0 602.0,299.0 605.0,299.0 610.0,300.0 613.0,301.0 618.0,301.0 622.0,302.0 633.0,303.0 636.0,303.0 640.0,303.0 642.0" style="fill:none;stroke:#ffffff;stroke-width:2"/>
<polyline points="265.0 600.0,268.0 600.0,277.0 601.0,280.0 601.0,299.0 602.0" style="fill:none;stroke:#ffffff;stroke-width:2"/>
<polyline points="345.0 569.0,345.0 573.0,346.0 575.0,346.0 580.0,347.0 593.0,347.0 597.0,348.0 631.0,348.0 635.0,348.0 637.0" style="fill:none;stroke:#ffffff;stroke-width:2"/>
<polyline points="315.0 638.0,318.0 639.0,322.0 641.0,326.0 641.0,357.0 641.0" style="fill:none;stroke:#ffffff;stroke-width:2"/>
<polyline points="329.0 568.0,333.0 568.0,358.0 569.0,361.0 570.0,365.0 570.0" style="fill:none;stroke:#ffffff;stroke-width:2"/>
<polyline points="362.0 644.0,361.0 641.0,360.0 639.0,355.0 639.0,349.0 639.0" style="fill:none;stroke:#ffffff;stroke-width:2"/>
<polyline points="207.0 592.0,205.0 591.0,202.0 590.0,200.0 589.0,197.0 588.0,195.0 586.0,192.0 585.0,189.0 585.0,186.0 584.0,183.0 582.0,181.0 581.0,178.0 580.0,175.0 578.0,170.0 578.0,166.0 576.0,160.0 574.0,157.0 572.0,155.0 570.0,152.0 570.0,150.0 569.0,149.0 566.0,149.0 562.0,150.0 560.0,150.0 556.0,151.0 544.0,151.0 540.0,153.0 534.0,153.0 528.0,152.0 515.0,150.0 513.0,149.0 511.0,146.0 508.0,142.0 503.0,138.0 502.0,136.0 499.0,133.0 498.0,125.0 494.0,118.0 491.0,113.0 490.0,106.0 488.0,97.0 485.0,93.0 484.0,83.0 482.0,78.0 480.0,69.0 478.0,62.0 476.0,54.0 473.0,48.0 471.0,43.0 470.0,31.0 466.0,25.0 465.0,21.0 464.0,18.0 464.0,16.0 463.0,13.0 462.0,9.0 462.0,7.0 464.0,3.0 469.0,2.0 473.0,-2.0 477.0,-3.0 480.0,-5.0 485.0,-6.0 489.0,-7.0 494.0,-9.0 497.0,-9.0 502.0,-10.0 516.0,-10.0 521.0,-9.0 549.0,-8.0 551.0,-6.0 554.0,-5.0 556.0,-2.0 559.0,11.0 571.0,15.0 574.0,21.0 577.0,24.0 580.0,30.0 582.0,43.0 587.0,51.0 591.0,63.0 596.0,67.0 597.0,70.0 599.0,72.0 600.0,75.0 602.0,77.0 604.0,80.0 606.0,82.0 607.0,85.0 608.0,87.0 610.0,91.0 610.0,121.0 609.0,124.0 607.0,128.0 606.0,131.0 604.0,137.0 601.0,139.0 599.0,141.0 598.0,143.0 595.0,144.0 593.0,144.0 590.0,143.0 581.0,142.0 575.0,142.0 571.0,141.0 568.0" style="fill:none;stroke:#ffffff;stroke-width:2"/>
<polyline points="25.0 509.0,24.0 513.0,24.0 518.0,25.0 529.0,27.0 532.0,28.0 535.0,31.0 537.0,37.0 537.0,38.0 534.0,40.0 533.0,41.0 531.0,42.0 528.0,44.0 526.0,45.0 524.0,45.0 520.0,47.0 519.0,47.0 522.0,46.0 544.0,44.0 548.0,43.0 551.0,43.0 553.0" style="fill:none;stroke:#ffffff;stroke-width:2"/>
<polyline points="63.0 517.0,64.0 519.0,64.0 523.0,65.0 525.0,65.0 529.0,66.0 536.0,66.0 540.0,67.0 542.0,67.0 547.0,68.0 541.0,70.0 538.0,71.0 533.0,74.0 529.0,76.0 523.0,78.0 521.0,79.0 519.0,82.0 515.0,88.0 515.0,90.0 513.0,94.0 513.0,95.0 512.0" style="fill:none;stroke:#ffffff;stroke-width:2"/>
<polyline points="115.0 499.0,115.0 503.0,114.0 515.0,114.0 521.0,113.0 529.0,113.0 533.0,111.0 535.0,111.0 538.0,111.0 553.0" style="fill:none;stroke:#ffffff;stroke-width:2"/>
<polyline points="138.0 519.0,132.0 520.0,133.0 524.0,136.0 529.0,138.0 531.0,140.0 532.0,141.0 534.0,143.0 536.0,144.0 539.0,142.0 542.0,140.0 544.0,137.0 545.0,133.0 546.0,130.0 548.0,127.0 549.0,123.0 551.0" style="fill:none;stroke:#ffffff;stroke-width:2"/>
<polyline points="359.9 131.2,359.9 134.0,360.3 145.9,361.3 148.7,362.7 152.3,363.4 154.7,364.5 157.2,365.9 158.9,368.3 158.6,370.1 157.5,371.9 156.1,374.0 154.7,376.4 152.3,377.1 149.8,378.2 147.3,378.9 144.5,379.9 141.4,380.3 139.3,381.0 136.8,382.4 134.7,383.1 137.5,383.8 141.0,384.5 144.2,384.8 146.3,384.8 148.4,385.5 150.9,385.9 153.3,386.9 156.5,387.3 158.6" style="fill:none;stroke:#ffffff;stroke-width:2"/>
<polyline points="396.0 133.0,397.8 135.1,399.9 138.9,401.3 141.7,403.4 146.3,404.5 148.4,404.8 150.9,405.2 153.0,405.2 150.9,405.5 140.7,405.9 138.6,405.9 136.5,406.6 133.0,406.9 130.9,407.6 128.8,409.4 126.7,411.5 126.0,412.5 125.6" style="fill:none;stroke:#ffffff;stroke-width:2"/>
<polyline points="415.7 111.6,416.7 114.1,417.1 116.5,417.8 120.4,418.1 123.2,418.8 126.0,419.2 128.8,419.5 130.9,419.9 133.7,419.9 136.1,420.9 139.6,421.3 142.1,421.3 144.5,421.6 147.0,421.6 149.1,422.3 151.6,423.0 154.7,423.4 155.1" style="fill:none;stroke:#ffffff;stroke-width:2"/>
<polyline points="452.1 121.8,450.0 122.1,443.7 123.9,440.2 125.3,437.7 126.0,435.6 127.7,433.9 128.8,432.1 130.2,430.0 131.9,429.0 133.7,430.0 136.1,432.1 137.5,435.3 138.6,437.4 138.9,439.5 138.9,443.7 139.3,446.2 139.6,448.3 140.3,450.4 140.7,452.8 141.7,454.2 143.5,453.5 145.6,451.8 147.0,449.7 148.0,446.9 149.1,442.3 150.5,439.5 150.9,437.7 151.9,435.3 152.6,433.2 153.7,431.1 154.4" style="fill:none;stroke:#ffffff;stroke-width:2"/>
<polyline points="280.4 654.3,278.4 658.3,276.4 660.3,274.4 663.3,271.4 666.3,271.4 669.3,269.4 670.3,268.4 673.3,266.4 677.3,262.4 687.3,261.4 689.3,257.4 698.3,256.4 702.3,253.4 707.3,251.4 711.3,249.4 716.3,247.4 719.3,244.4 724.3,243.4 726.3,241.4 729.3,238.4 735.3,235.4 738.3,234.4 740.3,230.4 745.3,229.4 748.3,227.4 751.3,224.4 755.3,222.4 756.3,219.4 758.3,218.4 760.3,215.4 764.3,214.4 767.3,211.4 770.3,210.4 772.3,207.4 775.3,205.4 778.3,199.4 784.3,197.4 788.3,194.4 791.3,193.4 794.3,189.4 798.3,186.4 803.3,185.4 806.3,181.4 810.3,178.4 814.3,176.4 816.3,173.4 820.3,172.4 823.3,170.4 827.3,168.4 828.3,166.4 832.3,165.4 837.3,164.4 840.3" style="fill:none;stroke:#ffffff;stroke-width:2"/>
<polyline points="378.4 649.3,378.4 654.3,379.4 661.3,380.4 666.3,380.4 670.3,382.4 676.3,383.4 680.3,383.4 684.3,384.4 688.3,385.4 694.3,385.4 701.3,387.4 708.3,387.4 712.3,388.4 724.3,389.4 729.3,391.4 734.3,393.4 742.3,396.4 750.3,397.4 756.3,399.4 762.3,402.4 773.3,403.4 775.3,404.4 778.3,406.4 781.3,407.4 783.3,408.4 787.3,410.4 790.3,413.4 795.3,415.4 798.3,416.4 800.3,418.4 803.3,420.4 805.3,421.4 808.3,423.4 810.3,426.4 814.3,429.4 816.3,431.4 818.3,435.4 821.3" style="fill:none;stroke:#ffffff;stroke-width:2"/>
<polyline points="716.4 189.3,719.4 189.3,750.4 191.3,758.4 192.3,763.4 193.3,768.4 193.3,775.4 194.3,779.4 194.3,789.4 196.3,793.4 196.3,799.4 197.3,803.4 197.3,905.4 197.3,914.4 197.3" style="fill:none;stroke:#ffffff;stroke-width:2"/>
<polyline points="592.4 388.3,595.4 388.3,604.4 390.3,608.4 391.3,615.4 393.3,618.4 394.3,629.4 396.3,636.4 397.3,643.4 399.3,649.4 399.3,657.4 400.3,663.4 400.3,667.4 401.3,674.4 402.3,686.4 404.3,700.4 405.3,705.4 406.3,711.4 408.3,719.4 409.3,726.4 410.3,732.4 411.3,737.4 411.3,742.4 413.3,747.4 413.3,752.4 414.3,756.4 415.3,762.4 415.3,766.4 417.3,772.4 418.3,776.4 418.3,781.4 419.3,787.4 419.3,790.4 420.3,803.4 423.3,807.4 424.3,812.4 426.3,816.4 427.3,819.4 428.3,827.4 431.3,830.4 432.3,833.4 432.3,837.4 433.3,840.4 433.3,842.4 435.3,847.4 435.3,848.4 436.3" style="fill:none;stroke:#ffffff;stroke-width:2"/>
<polyline points="105.1 876.4,107.3 876.4,111.7 877.5,112.8 879.7,110.6 879.7,107.3 878.6,105.1 876.4,105.1 874.2,105.1 869.8" style="fill:none;stroke:#ffffff;stroke-width:2"/>
<polyline points="146.4 871.9,148.7 873.3,147.3 875.1,145.0 874.7,144.0 872.8" style="fill:none;stroke:#ffffff;stroke-width:2"/>
<polyline points="178.6 874.2,178.6 876.5,176.2 877.9,173.4 877.5,173.9 875.1,176.2 874.7,178.1 874.2" style="fill:none;stroke:#ffffff;stroke-width:2"/>
<polyline points="433.3 842.0,431.9 844.8,430.0 846.7,427.7 847.6,425.3 847.2,425.8 844.8,428.1 844.4,430.0 844.4" style="fill:none;stroke:#ffffff;stroke-width:2"/>
<polyline points="451.5 830.8,452.9 833.2,450.5 834.6,448.2 834.1,450.5 832.7,452.4 832.7" style="fill:none;stroke:#ffffff;stroke-width:2"/>
<polyline points="466.9 813.1,466.4 815.4,468.3 813.6,470.6 812.6,466.9 812.2,464.5 812.2" style="fill:none;stroke:#ffffff;stroke-width:2"/>
<polyline points="209.1 124.3,210.5 124.3,210.6 124.3,210.6 124.3,210.6 124.3,209.1 124.3,209.1 124.3,209.1 124.3,209.1 124.3,209.1 124.3" style="fill:none;stroke:#ffffff;stroke-width:2"/>
<polyline points="220.8 228.2,220.8 228.2,220.8 228.2,220.8 228.2,220.8 228.2,220.8 228.2,220.8 228.2,220.8 228.2,220.8 228.2,220.8 228.2" style="fill:none;stroke:#ffffff;stroke-width:2"/>
<polyline points="144.7 270.7,144.7 270.7,144.7 270.7,144.7 270.7,144.7 270.7,144.7 270.7,144.7 270.7,144.7 270.7,144.7 270.7,144.7 270.7" style="fill:none;stroke:#ffffff;stroke-width:2"/>
<polyline points="144.7 270.7,144.7 270.7,144.7 270.7,144.7 270.7,144.7 270.7,144.7 270.7,144.7 270.7,144.7 270.7,144.7 270.7,144.7 270.7" style="fill:none;stroke:#ffffff;stroke-width:2"/>
<polyline points="174.0 544.5,174.0 544.5,174.0 544.5,174.0 544.5,174.0 544.5,174.0 544.5,174.0 544.5,174.0 544.5,174.0 544.5,174.0 544.5" style="fill:none;stroke:#ffffff;stroke-width:2"/>
<polyline points="174.0 544.5,174.0 544.5,174.0 544.5,174.0 544.5,174.0 544.5,174.0 544.5,174.0 544.5,174.0 544.5,174.0 544.5,174.0 544.5" style="fill:none;stroke:#ffffff;stroke-width:2"/>
<polyline points="152.0 491.8,152.0 491.8,152.0 491.8,152.0 491.8,152.0 491.8,152.0 491.8,152.0 491.8,152.0 491.8,152.0 491.8,152.0 491.8" style="fill:none;stroke:#ffffff;stroke-width:2"/>
<polyline points="152.0 491.8,152.0 491.8,152.0 491.8,152.0 491.8,152.0 491.8,152.0 491.8,152.0 491.8,152.0 491.8,152.0 491.8,152.0 491.8" style="fill:none;stroke:#ffffff;stroke-width:2"/>
<polyline points="226.7 203.3,226.7 203.3,226.7 203.3,226.7 203.3,226.7 203.3,226.7 203.3,226.7 203.3,226.7 203.3,226.7 203.3,226.7 203.3" style="fill:none;stroke:#ffffff;stroke-width:2"/>
<polyline points="226.7 203.3,226.7 203.3,226.7 203.3,226.7 203.3,226.7 203.3,226.7 203.3,226.7 203.3,226.7 203.3,226.7 203.3,226.7 203.3" style="fill:none;stroke:#ffffff;stroke-width:2"/>
<polyline points="166.6 641.1,166.6 641.1,166.6 641.1,166.6 641.1,166.6 641.1,166.6 641.1,166.6 641.1,166.6 641.1,166.6 641.1,166.6 641.1" style="fill:none;stroke:#ffffff;stroke-width:2"/>
<polyline points="229.6 644.0,229.6 644.0,229.6 644.0,229.6 644.0,229.6 644.0,229.6 644.0,229.6 644.0,229.6 644.0,229.6 644.0,229.6 644.0" style="fill:none;stroke:#ffffff;stroke-width:2"/>
<polyline points="421.4 680.6,421.4 680.6,421.4 680.6,421.4 680.6,421.4 680.6,421.4 680.6,421.4 680.6,421.4 680.6,421.4 680.6,421.4 680.6" style="fill:none;stroke:#ffffff;stroke-width:2"/>
</svg>